HIERARCHY
ROOT Hips
{
	OFFSET 0.000000 83.214638 0.000000
	CHANNELS 6 Xposition Yposition Zposition Xrotation Yrotation Zrotation
	JOINT Pelvis
	{
		OFFSET 0.000000 0.000000 0.000000
		CHANNELS 3 Xrotation Yrotation Zrotation
		JOINT LeftUpLeg
		{
			OFFSET 8.479700 -4.795502 -0.379100
			CHANNELS 3 Xrotation Yrotation Zrotation
			JOINT LeftLeg
			{
				OFFSET 0.024144 -32.555107 0.112900
				CHANNELS 3 Xrotation Yrotation Zrotation
				JOINT LeftFoot
				{
					OFFSET -0.024144 -32.638630 -3.012600
					CHANNELS 3 Xrotation Yrotation Zrotation
					JOINT LeftToeBase
					{
						OFFSET 0.970200 -13.225400 11.864200
						CHANNELS 3 Xrotation Yrotation Zrotation
						End Site
						{
							OFFSET 0.000000 12.319262 0.000000
						}
					}
					JOINT LFootTongue
					{
						OFFSET 1.142400 -1.059800 6.665200
						CHANNELS 3 Xrotation Yrotation Zrotation
						End Site
						{
							OFFSET 0.000000 12.319262 0.000000
						}
					}
				}
				JOINT LeftPantLeg
				{
					OFFSET 0.918482 -16.533964 -2.284700
					CHANNELS 3 Xrotation Yrotation Zrotation
					End Site
					{
						OFFSET 0.350399 24.744368 0.000000
					}
				}
			}
		}
		JOINT RightUpLeg
		{
			OFFSET -8.479700 -4.795502 -0.379100
			CHANNELS 3 Xrotation Yrotation Zrotation
			JOINT RightLeg
			{
				OFFSET -0.023144 -32.555092 0.112900
				CHANNELS 3 Xrotation Yrotation Zrotation
				JOINT RightFoot
				{
					OFFSET 0.023144 -32.638641 -3.012700
					CHANNELS 3 Xrotation Yrotation Zrotation
					JOINT RightToeBase
					{
						OFFSET -0.970200 -13.225400 11.864200
						CHANNELS 3 Xrotation Yrotation Zrotation
						End Site
						{
							OFFSET 0.000000 12.319244 0.000000
						}
					}
					JOINT RFootTongue
					{
						OFFSET -1.142200 -1.059800 6.665200
						CHANNELS 3 Xrotation Yrotation Zrotation
						End Site
						{
							OFFSET 0.000000 12.319243 0.000000
						}
					}
				}
				JOINT RightPantLeg
				{
					OFFSET -0.919482 -16.533978 -2.284800
					CHANNELS 3 Xrotation Yrotation Zrotation
					End Site
					{
						OFFSET -0.350400 24.744419 0.000000
					}
				}
			}
		}
	}
	JOINT Spine
	{
		OFFSET 0.000000 7.722000 1.166200
		CHANNELS 3 Xrotation Yrotation Zrotation
		JOINT Spine1
		{
			OFFSET 0.000000 12.024101 0.248800
			CHANNELS 3 Xrotation Yrotation Zrotation
			JOINT Spine2
			{
				OFFSET 0.000000 11.502998 -0.491200
				CHANNELS 3 Xrotation Yrotation Zrotation
				JOINT Neck
				{
					OFFSET 0.000000 18.430702 -3.123100
					CHANNELS 3 Xrotation Yrotation Zrotation
					JOINT Head
					{
						OFFSET 0.000000 9.051102 1.034000
						CHANNELS 3 Xrotation Yrotation Zrotation
						JOINT HairB
						{
							OFFSET 0.208400 24.786102 24.822300
							CHANNELS 3 Xrotation Yrotation Zrotation
							End Site
							{
								OFFSET 0.000000 32.263779 0.000000
							}
						}
						JOINT HairA
						{
							OFFSET -7.081100 24.428299 23.196600
							CHANNELS 3 Xrotation Yrotation Zrotation
							End Site
							{
								OFFSET 0.000000 32.263779 0.000000
							}
						}
						JOINT Hat
						{
							OFFSET 16.728800 15.048294 -15.439601
							CHANNELS 3 Xrotation Yrotation Zrotation
							End Site
							{
								OFFSET 0.000000 32.263779 0.000000
							}
						}
					}
				}
				JOINT LeftShoulder
				{
					OFFSET 6.197800 13.665199 -4.064700
					CHANNELS 3 Xrotation Yrotation Zrotation
					JOINT LeftArm
					{
						OFFSET 7.778100 -0.187103 -1.709300
						CHANNELS 3 Xrotation Yrotation Zrotation
						JOINT LeftForeArm
						{
							OFFSET 22.049376 0.000000 0.000000
							CHANNELS 3 Xrotation Yrotation Zrotation
							JOINT LeftHand
							{
								OFFSET 23.009392 0.000000 0.000000
								CHANNELS 3 Xrotation Yrotation Zrotation
								JOINT LeftHandThumb1
								{
									OFFSET 3.507191 -2.063065 3.133727
									CHANNELS 3 Xrotation Yrotation Zrotation
									JOINT LeftHandThumb2
									{
										OFFSET 3.101337 -1.790558 1.790558
										CHANNELS 3 Xrotation Yrotation Zrotation
										JOINT LeftHandThumb3
										{
											OFFSET 3.058640 -1.765907 1.765906
											CHANNELS 3 Xrotation Yrotation Zrotation
											End Site
											{
												OFFSET -0.415260 3.926476 -0.049563
											}
										}
									}
								}
								JOINT LeftHandIndex1
								{
									OFFSET 11.334419 -0.901459 3.706815
									CHANNELS 3 Xrotation Yrotation Zrotation
									JOINT LeftHandIndex2
									{
										OFFSET 3.283112 0.000000 0.000000
										CHANNELS 3 Xrotation Yrotation Zrotation
										JOINT LeftHandIndex3
										{
											OFFSET 3.323853 0.000000 0.000000
											CHANNELS 3 Xrotation Yrotation Zrotation
											End Site
											{
												OFFSET -1.135597 3.097809 0.402452
											}
										}
									}
								}
								JOINT LeftHandMiddle1
								{
									OFFSET 11.335861 0.000000 0.000000
									CHANNELS 3 Xrotation Yrotation Zrotation
									JOINT LeftHandMiddle2
									{
										OFFSET 3.410492 0.000000 0.000000
										CHANNELS 3 Xrotation Yrotation Zrotation
										JOINT LeftHandMiddle3
										{
											OFFSET 3.312172 0.000000 0.000000
											CHANNELS 3 Xrotation Yrotation Zrotation
											End Site
											{
												OFFSET -1.150200 3.080154 0.400270
											}
										}
									}
								}
								JOINT LeftHandRing1
								{
									OFFSET 11.514786 -0.013176 -3.003090
									CHANNELS 3 Xrotation Yrotation Zrotation
									JOINT LeftHandRing2
									{
										OFFSET 3.053307 0.000000 0.000000
										CHANNELS 3 Xrotation Yrotation Zrotation
										JOINT LeftHandRing3
										{
											OFFSET 3.295807 0.000000 0.000000
											CHANNELS 3 Xrotation Yrotation Zrotation
											End Site
											{
												OFFSET -1.281006 3.013344 0.375733
											}
										}
									}
								}
								JOINT LeftHandPinky1
								{
									OFFSET 10.518692 -0.960396 -5.730441
									CHANNELS 3 Xrotation Yrotation Zrotation
									JOINT LeftHandPinky2
									{
										OFFSET 2.861649 0.000000 0.000000
										CHANNELS 3 Xrotation Yrotation Zrotation
										JOINT LeftHandPinky3
										{
											OFFSET 2.863380 0.000000 0.000000
											CHANNELS 3 Xrotation Yrotation Zrotation
											End Site
											{
												OFFSET -0.843597 2.711159 0.369971
											}
										}
									}
								}
							}
							JOINT LSleeve
							{
								OFFSET 6.676277 -0.344902 -1.011730
								CHANNELS 3 Xrotation Yrotation Zrotation
								End Site
								{
									OFFSET 0.000000 14.885353 0.000000
								}
							}
						}
					}
				}
				JOINT RightShoulder
				{
					OFFSET -6.197800 13.665199 -4.064700
					CHANNELS 3 Xrotation Yrotation Zrotation
					JOINT RightArm
					{
						OFFSET -7.778100 -0.187103 -1.709300
						CHANNELS 3 Xrotation Yrotation Zrotation
						JOINT RightForeArm
						{
							OFFSET -22.049376 0.000000 0.000000
							CHANNELS 3 Xrotation Yrotation Zrotation
							JOINT RightHand
							{
								OFFSET -23.009392 0.000000 0.000000
								CHANNELS 3 Xrotation Yrotation Zrotation
								JOINT RightHandThumb1
								{
									OFFSET -3.507191 -2.063065 3.133727
									CHANNELS 3 Xrotation Yrotation Zrotation
									JOINT RightHandThumb2
									{
										OFFSET -3.101337 -1.790558 1.790558
										CHANNELS 3 Xrotation Yrotation Zrotation
										JOINT RightHandThumb3
										{
											OFFSET -3.058640 -1.765907 1.765906
											CHANNELS 3 Xrotation Yrotation Zrotation
											End Site
											{
												OFFSET 0.415260 3.926476 -0.049563
											}
										}
									}
								}
								JOINT RightHandIndex1
								{
									OFFSET -11.334419 -0.901459 3.706815
									CHANNELS 3 Xrotation Yrotation Zrotation
									JOINT RightHandIndex2
									{
										OFFSET -3.283112 0.000000 0.000000
										CHANNELS 3 Xrotation Yrotation Zrotation
										JOINT RightHandIndex3
										{
											OFFSET -3.323853 0.000000 0.000000
											CHANNELS 3 Xrotation Yrotation Zrotation
											End Site
											{
												OFFSET 1.135597 3.097809 0.402452
											}
										}
									}
								}
								JOINT RightHandMiddle1
								{
									OFFSET -11.335861 0.000000 0.000000
									CHANNELS 3 Xrotation Yrotation Zrotation
									JOINT RightHandMiddle2
									{
										OFFSET -3.410492 0.000000 0.000000
										CHANNELS 3 Xrotation Yrotation Zrotation
										JOINT RightHandMiddle3
										{
											OFFSET -3.312172 0.000000 0.000000
											CHANNELS 3 Xrotation Yrotation Zrotation
											End Site
											{
												OFFSET 1.150200 3.080154 0.400270
											}
										}
									}
								}
								JOINT RightHandRing1
								{
									OFFSET -11.514786 -0.013176 -3.003090
									CHANNELS 3 Xrotation Yrotation Zrotation
									JOINT RightHandRing2
									{
										OFFSET -3.053307 0.000000 0.000000
										CHANNELS 3 Xrotation Yrotation Zrotation
										JOINT RightHandRing3
										{
											OFFSET -3.295807 0.000000 0.000000
											CHANNELS 3 Xrotation Yrotation Zrotation
											End Site
											{
												OFFSET 1.281006 3.013344 0.375733
											}
										}
									}
								}
								JOINT RightHandPinky1
								{
									OFFSET -10.518692 -0.960396 -5.730441
									CHANNELS 3 Xrotation Yrotation Zrotation
									JOINT RightHandPinky2
									{
										OFFSET -2.861649 0.000000 0.000000
										CHANNELS 3 Xrotation Yrotation Zrotation
										JOINT RightHandPinky3
										{
											OFFSET -2.863380 0.000000 0.000000
											CHANNELS 3 Xrotation Yrotation Zrotation
											End Site
											{
												OFFSET 0.843597 2.711159 0.369971
											}
										}
									}
								}
							}
							JOINT RSleeve
							{
								OFFSET -6.676277 -0.344902 -1.011730
								CHANNELS 3 Xrotation Yrotation Zrotation
								End Site
								{
									OFFSET 0.000000 14.885353 0.000000
								}
							}
						}
					}
				}
				JOINT Backpack
				{
					OFFSET 0.000000 -2.471497 36.677502
					CHANNELS 3 Xrotation Yrotation Zrotation
					End Site
					{
						OFFSET 0.000000 20.427315 0.000000
					}
				}
				JOINT Hood
				{
					OFFSET 0.000000 18.754097 -10.431000
					CHANNELS 3 Xrotation Yrotation Zrotation
					JOINT Hood1
					{
						OFFSET 0.000000 -5.011002 -7.685901
						CHANNELS 3 Xrotation Yrotation Zrotation
						End Site
						{
							OFFSET 0.000000 9.175140 0.000000
						}
					}
				}
				JOINT LHoodieString
				{
					OFFSET 5.250500 16.397697 3.089900
					CHANNELS 3 Xrotation Yrotation Zrotation
					JOINT LHoodieString1
					{
						OFFSET 0.257700 -6.364304 3.694600
						CHANNELS 3 Xrotation Yrotation Zrotation
						JOINT LHoodieString2
						{
							OFFSET 0.000000 -9.643799 2.679100
							CHANNELS 3 Xrotation Yrotation Zrotation
							End Site
							{
								OFFSET 0.000000 10.009018 0.000000
							}
						}
					}
				}
				JOINT RHoodieString
				{
					OFFSET -5.250500 16.397697 3.089900
					CHANNELS 3 Xrotation Yrotation Zrotation
					JOINT RHoodieString1
					{
						OFFSET -0.257700 -6.364304 3.694600
						CHANNELS 3 Xrotation Yrotation Zrotation
						JOINT RHoodieString2
						{
							OFFSET 0.000000 -9.643799 2.679100
							CHANNELS 3 Xrotation Yrotation Zrotation
							End Site
							{
								OFFSET 0.000000 10.009018 0.000000
							}
						}
					}
				}
			}
			JOINT LBackpack_Strap
			{
				OFFSET 15.223200 -7.719803 -6.610900
				CHANNELS 3 Xrotation Yrotation Zrotation
				End Site
				{
					OFFSET 0.000000 16.040596 0.000000
				}
			}
			JOINT RBackpack_Strap
			{
				OFFSET -15.223000 -7.719803 -6.610900
				CHANNELS 3 Xrotation Yrotation Zrotation
				End Site
				{
					OFFSET 0.000000 16.040596 0.000000
				}
			}
		}
	}
	JOINT BoyFacialAnim_Joint
	{
		OFFSET 1.000000 -82.208099 -1.550900
		CHANNELS 3 Xrotation Yrotation Zrotation
		End Site
		{
			OFFSET 0.000000 30.012791 0.000000
		}
	}
}
MOTION
Frames: 4
Frame Time: 0.016667
-188.595627 81.934349 -8.931248 -0.249681 -1.906948 0.150046 -0.000000 0.000000 -0.000000 -11.606137 15.484997 10.385029 13.426859 -9.918437 -0.130620 -5.027134 -11.247797 -7.255017 0.000000 0.000000 0.000000 0.000000 0.000000 0.000000 0.000000 -0.000000 0.000000 -6.434904 -8.864051 -8.457058 15.410280 -0.227411 3.506367 -9.232345 -2.241503 3.761717 0.000000 0.000001 -0.000000 0.000000 0.000001 -0.000000 -0.000000 -0.000000 -0.000000 1.358713 0.266453 0.505300 1.526172 0.604860 0.276834 1.528456 0.599782 0.275481 2.397565 -0.807861 -0.311582 -5.722447 -4.753666 1.062652 0.000000 -0.000000 0.000000 0.000000 -0.000000 0.000000 0.000000 -0.000000 0.000000 0.680080 -3.439144 -11.860525 7.201843 -16.916700 -65.380251 -0.000005 -20.680361 -0.000026 -11.810934 -9.230388 8.456937 -4.796954 3.051757 4.543918 15.168974 25.440071 5.455595 0.000002 -0.000001 -0.000001 -1.456314 0.275395 -37.796723 1.499748 3.915414 -41.904553 -0.000005 0.000001 0.000000 -0.989835 3.521585 -42.884186 1.912726 4.330587 -47.643728 0.000000 -0.000002 -0.000002 -1.278575 4.236147 -52.701292 2.281773 4.639298 -52.360708 -0.000002 -0.000002 -0.000002 0.169519 5.868129 -58.032415 2.290180 4.645754 -52.464411 0.000002 -0.000000 0.000001 -0.000000 0.000001 -0.000000 0.475741 8.188373 13.746942 13.305185 7.816372 61.653338 0.000003 31.239048 -0.000002 -9.883379 4.315932 -8.466883 -3.629454 2.305977 -13.175365 14.001465 -30.265398 1.170813 0.000001 0.000000 -0.000000 -0.431373 6.502032 20.288756 1.739989 -3.631919 51.185281 -0.000000 -0.000000 0.000005 -1.795539 -0.980961 34.164760 1.353508 -3.284347 44.784608 -0.000001 0.000001 0.000000 -1.346454 -2.158754 38.580460 1.794974 -3.675365 52.048183 0.000001 -0.000000 0.000000 -0.503791 -3.831110 44.436757 1.111618 -3.021588 40.388896 -0.000000 -0.000002 -0.000004 0.000000 -0.000001 0.000001 0.000001 0.000000 0.000000 0.000001 0.000000 0.000000 0.000001 0.000000 0.000000 0.000001 0.000000 0.000000 0.000001 0.000000 0.000000 0.000000 -0.000000 0.000000 0.000001 0.000000 0.000000 0.000001 0.000000 0.000000 0.000000 -0.000000 0.000000 -0.000000 -0.000000 -0.000000 -0.000000 -0.000000 -0.000000 -0.000000 0.000000 -0.000000 
-188.579590 81.919334 -8.919395 -0.220938 -1.903292 0.158069 0.000000 0.000000 0.000000 -11.690282 15.477181 10.378949 13.566967 -9.919038 -0.149687 -5.117449 -11.246399 -7.145097 0.000000 0.000000 0.000000 0.000000 0.000000 0.000000 0.000000 0.000000 -0.000001 -6.513122 -8.905353 -8.505983 15.486457 -0.162244 3.525232 -9.221736 -2.243836 3.763866 -0.000000 -0.000000 0.000000 -0.000000 -0.000000 0.000000 -0.000000 -0.000000 0.000000 1.367746 0.270075 0.502517 1.531444 0.606262 0.276090 1.533718 0.600987 0.273806 2.333150 -0.807860 -0.344317 -5.803872 -4.814684 1.134473 0.000000 0.000000 0.000000 0.000000 0.000000 0.000000 0.000000 0.000000 0.000000 0.675230 -3.107452 -11.968065 6.895873 -17.408914 -64.965590 -0.000004 -21.235282 -0.000013 -11.562177 -8.704123 7.746391 -5.002443 2.936996 4.426654 15.317519 25.259588 5.072969 0.000001 -0.000001 -0.000000 -1.570713 0.351092 -38.821132 1.555517 3.976546 -42.715013 -0.000003 -0.000001 -0.000005 -1.061512 3.536021 -43.793646 1.991624 4.401020 -48.680141 0.000001 0.000001 -0.000001 -1.391747 4.262042 -53.784403 2.370274 4.705987 -53.446876 -0.000003 0.000002 -0.000000 0.125756 5.897886 -59.090897 2.390683 4.721004 -53.695150 -0.000001 -0.000000 -0.000002 -0.000002 -0.000000 -0.000001 0.473370 8.054810 13.883103 13.604480 8.269874 60.830867 0.000001 32.298971 0.000002 -9.651786 5.375921 -9.192768 -3.762559 2.514896 -13.410420 14.089923 -30.154602 1.745231 -0.000002 -0.000000 0.000002 -0.560409 6.702912 20.635219 1.816298 -3.691885 52.380014 -0.000001 -0.000002 0.000003 -1.907301 -0.903901 34.752102 1.406556 -3.336877 45.703296 -0.000000 0.000003 0.000002 -1.442348 -2.098814 39.124601 1.864072 -3.728120 53.118480 -0.000003 -0.000003 -0.000000 -0.565017 -3.792864 44.974613 1.150904 -3.067091 41.128462 -0.000001 0.000001 0.000000 0.000001 0.000001 -0.000001 -0.000000 0.000000 -0.000000 -0.000000 0.000000 -0.000000 -0.000000 0.000000 -0.000000 -0.000000 0.000000 -0.000000 -0.000000 0.000000 -0.000000 -0.000001 -0.000000 -0.000000 -0.000000 0.000000 -0.000000 -0.000000 0.000000 -0.000000 -0.000001 -0.000000 -0.000000 0.000000 0.000000 -0.000000 0.000000 0.000000 -0.000000 0.000000 0.000000 0.000000 
-188.558243 81.904861 -8.912921 -0.173626 -1.914456 0.167938 -0.000000 0.000000 0.000000 -11.796752 15.468789 10.374730 13.716779 -9.920344 -0.174383 -5.226095 -11.225961 -7.035431 -0.000000 0.000000 -0.000000 -0.000000 0.000000 -0.000000 -0.000000 0.000001 -0.000000 -6.621798 -8.923235 -8.551023 15.576217 -0.105214 3.528605 -9.223354 -2.248384 3.777503 0.000000 -0.000000 0.000000 0.000000 -0.000000 0.000000 0.000001 0.000000 0.000000 1.375331 0.282707 0.501768 1.534144 0.618928 0.275134 1.536387 0.613600 0.273539 2.245560 -0.804274 -0.383274 -6.001869 -4.864039 1.193530 0.000000 0.000000 0.000000 0.000000 0.000000 0.000000 0.000000 0.000000 0.000000 0.674981 -2.709238 -11.957098 6.658607 -17.652578 -64.530029 0.000001 -22.655379 0.000005 -12.066288 -8.706397 7.052889 -5.209594 2.820750 4.307791 15.466350 25.076353 4.687935 -0.000000 0.000000 0.000001 -1.685202 0.430442 -39.850964 1.612458 4.037192 -43.529786 -0.000003 0.000000 -0.000002 -1.134790 3.553194 -44.707813 2.072248 4.470395 -49.722500 -0.000003 0.000001 0.000000 -1.507005 4.293135 -54.873128 2.460527 4.771352 -54.539344 0.000000 -0.000001 0.000001 0.080650 5.930735 -60.154945 2.493375 4.794503 -54.933258 0.000000 0.000001 -0.000000 0.000002 -0.000001 0.000001 0.480197 7.824794 13.908634 13.803066 8.765859 60.021264 0.000002 33.727423 0.000013 -10.033477 6.711234 -10.260460 -3.896468 2.725654 -13.646570 14.178180 -30.041781 2.323886 -0.000000 -0.000001 -0.000002 -0.692423 6.904149 20.983501 1.894289 -3.750549 53.581557 -0.000003 0.000003 0.000002 -2.021848 -0.828655 35.342206 1.460747 -3.388817 46.627062 -0.000000 0.000003 0.000004 -1.540404 -2.040412 39.671255 1.934555 -3.779876 54.194921 -0.000001 -0.000002 0.000000 -0.628030 -3.755676 45.514844 1.190968 -3.112315 41.871976 0.000003 0.000001 0.000004 -0.000000 0.000000 -0.000001 -0.000000 0.000000 -0.000000 -0.000000 0.000000 -0.000000 -0.000000 0.000000 -0.000000 -0.000000 0.000000 -0.000000 -0.000000 0.000000 -0.000000 -0.000000 0.000000 -0.000000 -0.000000 0.000000 -0.000000 -0.000000 0.000000 -0.000000 -0.000000 0.000000 -0.000000 0.000000 -0.000000 0.000000 0.000000 -0.000000 0.000000 -0.000000 0.000000 0.000000 
-188.531067 81.896866 -8.915164 -0.124118 -1.938019 0.181079 0.000000 -0.000000 0.000000 -11.887170 15.461243 10.359354 13.830815 -9.921453 -0.197426 -5.324959 -11.188556 -6.953780 0.000000 -0.000000 -0.000000 0.000000 -0.000000 -0.000000 -0.000000 0.000001 -0.000000 -6.725738 -8.926227 -8.591507 15.645984 -0.057393 3.516750 -9.243742 -2.256106 3.801287 -0.000000 0.000001 0.000000 -0.000000 0.000001 0.000000 -0.000001 0.000001 -0.000000 1.383553 0.302307 0.500291 1.538205 0.645311 0.273751 1.540387 0.640241 0.273648 2.156835 -0.796674 -0.417830 -6.316917 -4.882723 1.239700 0.000000 -0.000000 -0.000000 0.000000 -0.000000 -0.000000 0.000000 -0.000000 -0.000000 0.681320 -2.265465 -11.771149 6.596422 -17.554466 -64.079947 -0.000002 -25.201807 0.000008 -13.999448 -9.246299 6.718653 -5.417918 2.703403 4.187566 15.615107 24.890876 4.301414 0.000002 -0.000002 0.000002 -1.799447 0.513335 -40.883767 1.670412 4.097194 -44.347086 -0.000000 0.000001 -0.000003 -1.209451 3.573141 -45.624567 2.154387 4.538518 -50.768390 0.000002 0.000000 -0.000002 -1.623985 4.329490 -55.964938 2.552309 4.835194 -55.635579 0.000000 0.000000 -0.000000 0.034371 5.966707 -61.222230 2.597998 4.866018 -56.175792 0.000003 0.000001 -0.000000 0.000002 0.000000 0.000001 0.498076 7.530343 13.753908 13.999233 9.313917 59.251966 -0.000003 35.758707 0.000013 -11.394867 7.937365 -11.635016 -4.030872 2.937711 -13.883329 14.266065 -29.927389 2.905296 -0.000001 -0.000000 0.000002 -0.827108 7.105272 21.332713 1.973761 -3.807767 54.787150 0.000001 -0.000001 0.000005 -2.138897 -0.755411 35.933721 1.515945 -3.440036 47.553799 0.000002 -0.000000 -0.000000 -1.640356 -1.983692 40.219036 2.006243 -3.830439 55.274996 -0.000000 0.000001 0.000001 -0.692659 -3.719679 46.056198 1.231751 -3.157159 42.617628 -0.000002 0.000000 0.000004 -0.000001 -0.000003 -0.000001 -0.000000 0.000000 0.000000 -0.000000 0.000000 0.000000 -0.000000 0.000000 0.000000 -0.000000 0.000000 0.000000 -0.000000 0.000000 -0.000000 -0.000001 0.000000 -0.000000 -0.000000 0.000000 0.000000 -0.000000 0.000000 -0.000000 -0.000001 0.000000 -0.000000 0.000000 0.000000 -0.000000 0.000000 0.000000 -0.000000 0.000000 -0.000000 0.000000 
